{
  "accessors": [
    {
      "bufferView": 2,
      "componentType": 5126,
      "count": 1594,
      "max": [
        50.0,
        6.25,
        50.0
      ],
      "min": [
        -50.0,
        0.0,
        -50.0
      ],
      "type": "VEC3"
    },
    {
      "bufferView": 2,
      "byteOffset": 19128,
      "componentType": 5126,
      "count": 1594,
      "max": [
        1.0,
        1.0,
        1.0
      ],
      "min": [
        -1.0,
        -1.0,
        -1.0
      ],
      "type": "VEC3"
    },
    {
      "bufferView": 1,
      "componentType": 5126,
      "count": 1594,
      "max": [
        1.0,
        1.0
      ],
      "min": [
        0.0,
        0.0
      ],
      "type": "VEC2"
    },
    {
      "bufferView": 0,
      "componentType": 5125,
      "count": 3024,
      "type": "SCALAR"
    },
    {
      "bufferView": 2,
      "byteOffset": 38256,
      "componentType": 5126,
      "count": 1594,
      "max": [
        50.0,
        6.25,
        50.0
      ],
      "min": [
        -50.0,
        0.0,
        -50.0
      ],
      "type": "VEC3"
    },
    {
      "bufferView": 2,
      "byteOffset": 57384,
      "componentType": 5126,
      "count": 1594,
      "max": [
        1.0,
        1.0,
        1.0
      ],
      "min": [
        -1.0,
        -1.0,
        -1.0
      ],
      "type": "VEC3"
    },
    {
      "bufferView": 1,
      "byteOffset": 12752,
      "componentType": 5126,
      "count": 1594,
      "max": [
        1.0,
        1.0
      ],
      "min": [
        0.0,
        0.0
      ],
      "type": "VEC2"
    },
    {
      "bufferView": 0,
      "byteOffset": 12096,
      "componentType": 5125,
      "count": 3024,
      "type": "SCALAR"
    },
    {
      "bufferView": 2,
      "byteOffset": 76512,
      "componentType": 5126,
      "count": 1594,
      "max": [
        50.0,
        6.25,
        50.0
      ],
      "min": [
        -50.0,
        0.0,
        -50.0
      ],
      "type": "VEC3"
    },
    {
      "bufferView": 2,
      "byteOffset": 95640,
      "componentType": 5126,
      "count": 1594,
      "max": [
        1.0,
        1.0,
        1.0
      ],
      "min": [
        -1.0,
        -1.0,
        -1.0
      ],
      "type": "VEC3"
    },
    {
      "bufferView": 1,
      "byteOffset": 25504,
      "componentType": 5126,
      "count": 1594,
      "max": [
        1.0,
        1.0
      ],
      "min": [
        0.0,
        0.0
      ],
      "type": "VEC2"
    },
    {
      "bufferView": 0,
      "byteOffset": 24192,
      "componentType": 5125,
      "count": 3024,
      "type": "SCALAR"
    },
    {
      "bufferView": 2,
      "byteOffset": 114768,
      "componentType": 5126,
      "count": 1594,
      "max": [
        50.0,
        6.25,
        50.0
      ],
      "min": [
        -50.0,
        0.0,
        -50.0
      ],
      "type": "VEC3"
    },
    {
      "bufferView": 2,
      "byteOffset": 133896,
      "componentType": 5126,
      "count": 1594,
      "max": [
        1.0,
        1.0,
        1.0
      ],
      "min": [
        -1.0,
        -1.0,
        -1.0
      ],
      "type": "VEC3"
    },
    {
      "bufferView": 1,
      "byteOffset": 38256,
      "componentType": 5126,
      "count": 1594,
      "max": [
        1.0,
        1.0
      ],
      "min": [
        0.0,
        0.0
      ],
      "type": "VEC2"
    },
    {
      "bufferView": 0,
      "byteOffset": 36288,
      "componentType": 5125,
      "count": 3024,
      "type": "SCALAR"
    },
    {
      "bufferView": 2,
      "byteOffset": 153024,
      "componentType": 5126,
      "count": 1594,
      "max": [
        50.0,
        6.25,
        50.0
      ],
      "min": [
        -50.0,
        0.0,
        -50.0
      ],
      "type": "VEC3"
    },
    {
      "bufferView": 2,
      "byteOffset": 172152,
      "componentType": 5126,
      "count": 1594,
      "max": [
        1.0,
        1.0,
        1.0
      ],
      "min": [
        -1.0,
        -1.0,
        -1.0
      ],
      "type": "VEC3"
    },
    {
      "bufferView": 1,
      "byteOffset": 51008,
      "componentType": 5126,
      "count": 1594,
      "max": [
        1.0,
        1.0
      ],
      "min": [
        0.0,
        0.0
      ],
      "type": "VEC2"
    },
    {
      "bufferView": 0,
      "byteOffset": 48384,
      "componentType": 5125,
      "count": 3024,
      "type": "SCALAR"
    }
  ],
  "asset": {
    "extras": {
      "author": "ShadowBubbles (https://sketchfab.com/ShadowBubbles)",
      "license": "CC-BY-4.0 (http://creativecommons.org/licenses/by/4.0/)",
      "source": "https://sketchfab.com/3d-models/minecraft-swords-8f5f2999a58245f88733dbfe402d5429",
      "title": "Minecraft Swords"
    },
    "generator": "Sketchfab-12.68.0",
    "version": "2.0"
  },
  "bufferViews": [
    {
      "buffer": 0,
      "byteLength": 60480,
      "name": "floatBufferViews",
      "target": 34963
    },
    {
      "buffer": 0,
      "byteLength": 63760,
      "byteOffset": 60480,
      "byteStride": 8,
      "name": "floatBufferViews",
      "target": 34962
    },
    {
      "buffer": 0,
      "byteLength": 191280,
      "byteOffset": 124240,
      "byteStride": 12,
      "name": "floatBufferViews",
      "target": 34962
    }
  ],
  "buffers": [
    {
      "byteLength": 315520,
      "uri": "scene.bin"
    }
  ],
  "images": [
    {
      "uri": "textures/Gold_Sword_baseColor.png"
    },
    {
      "uri": "textures/Iron_Sword_baseColor.png"
    },
    {
      "uri": "textures/Stone_Sword_baseColor.png"
    },
    {
      "uri": "textures/Wood_Sword_baseColor.png"
    },
    {
      "uri": "textures/Diamond_Sword_baseColor.png"
    }
  ],
  "materials": [
    {
      "doubleSided": true,
      "name": "Gold_Sword",
      "pbrMetallicRoughness": {
        "baseColorTexture": {
          "index": 0
        },
        "roughnessFactor": 0.0
      }
    },
    {
      "doubleSided": true,
      "name": "Iron_Sword",
      "pbrMetallicRoughness": {
        "baseColorTexture": {
          "index": 1
        },
        "roughnessFactor": 0.0
      }
    },
    {
      "doubleSided": true,
      "name": "Stone_Sword",
      "pbrMetallicRoughness": {
        "baseColorTexture": {
          "index": 2
        }
      }
    },
    {
      "doubleSided": true,
      "name": "Wood_Sword",
      "pbrMetallicRoughness": {
        "baseColorTexture": {
          "index": 3
        }
      }
    },
    {
      "doubleSided": true,
      "name": "Diamond_Sword",
      "pbrMetallicRoughness": {
        "baseColorTexture": {
          "index": 4
        },
        "roughnessFactor": 0.0
      }
    }
  ],
  "meshes": [
    {
      "name": "Wood_Sword_Gold Sword_0",
      "primitives": [
        {
          "attributes": {
            "NORMAL": 1,
            "POSITION": 0,
            "TEXCOORD_0": 2
          },
          "indices": 3,
          "material": 0,
          "mode": 4
        }
      ]
    },
    {
      "name": "Stone_Sword_Iron Sword_0",
      "primitives": [
        {
          "attributes": {
            "NORMAL": 5,
            "POSITION": 4,
            "TEXCOORD_0": 6
          },
          "indices": 7,
          "material": 1,
          "mode": 4
        }
      ]
    },
    {
      "name": "Iron_Sword_Stone Sword_0",
      "primitives": [
        {
          "attributes": {
            "NORMAL": 9,
            "POSITION": 8,
            "TEXCOORD_0": 10
          },
          "indices": 11,
          "material": 2,
          "mode": 4
        }
      ]
    },
    {
      "name": "Gold_Sword_Wood Sword_0",
      "primitives": [
        {
          "attributes": {
            "NORMAL": 13,
            "POSITION": 12,
            "TEXCOORD_0": 14
          },
          "indices": 15,
          "material": 3,
          "mode": 4
        }
      ]
    },
    {
      "name": "Diamond_Sword_Diamond Sword_0",
      "primitives": [
        {
          "attributes": {
            "NORMAL": 17,
            "POSITION": 16,
            "TEXCOORD_0": 18
          },
          "indices": 19,
          "material": 4,
          "mode": 4
        }
      ]
    }
  ],
  "nodes": [
    {
      "children": [
        1
      ],
      "matrix": [
        1.0,
        0.0,
        0.0,
        0.0,
        0.0,
        2.220446049250313e-16,
        -1.0,
        0.0,
        0.0,
        1.0,
        2.220446049250313e-16,
        0.0,
        0.0,
        0.0,
        0.0,
        1.0
      ],
      "name": "Sketchfab_model"
    },
    {
      "children": [
        2
      ],
      "matrix": [
        1.0,
        0.0,
        0.0,
        0.0,
        0.0,
        0.0,
        1.0,
        0.0,
        0.0,
        -1.0,
        0.0,
        0.0,
        0.0,
        0.0,
        0.0,
        1.0
      ],
      "name": "f12834c367e042f2a897f395b8f52380.fbx"
    },
    {
      "children": [
        3,
        5,
        7,
        9,
        11,
        13
      ],
      "name": "RootNode"
    },
    {
      "children": [
        4
      ],
      "matrix": [
        -0.24275921474537254,
        -0.7548641007719054,
        -0.6093013646973332,
        0.0,
        -0.2793954265522668,
        0.6558812311431259,
        -0.7012545944632764,
        0.0,
        0.9289812480765621,
        -5.551115123125783e-17,
        -0.37012679006269344,
        0.0,
        142.88687133789063,
        334.6929626464844,
        273.3978576660156,
        1.0
      ],
      "name": "CINEMA_4D_Editor"
    },
    {
      "name": "Object_4"
    },
    {
      "children": [
        6
      ],
      "matrix": [
        0.699999988079071,
        0.0,
        0.0,
        0.0,
        0.0,
        0.699999988079071,
        0.0,
        0.0,
        0.0,
        0.0,
        0.699999988079071,
        0.0,
        -18.091949462890625,
        0.0,
        0.0,
        1.0
      ],
      "name": "Wood_Sword"
    },
    {
      "mesh": 0,
      "name": "Wood_Sword_Gold Sword_0"
    },
    {
      "children": [
        8
      ],
      "matrix": [
        0.699999988079071,
        0.0,
        0.0,
        0.0,
        0.0,
        0.699999988079071,
        0.0,
        0.0,
        0.0,
        0.0,
        0.699999988079071,
        0.0,
        46.997013092041016,
        0.0,
        0.0,
        1.0
      ],
      "name": "Stone_Sword"
    },
    {
      "mesh": 1,
      "name": "Stone_Sword_Iron Sword_0"
    },
    {
      "children": [
        10
      ],
      "matrix": [
        0.699999988079071,
        0.0,
        0.0,
        0.0,
        0.0,
        0.699999988079071,
        0.0,
        0.0,
        0.0,
        0.0,
        0.699999988079071,
        0.0,
        108.8148422241211,
        0.0,
        0.0,
        1.0
      ],
      "name": "Iron_Sword"
    },
    {
      "mesh": 2,
      "name": "Iron_Sword_Stone Sword_0"
    },
    {
      "children": [
        12
      ],
      "matrix": [
        0.699999988079071,
        0.0,
        0.0,
        0.0,
        0.0,
        0.699999988079071,
        0.0,
        0.0,
        0.0,
        0.0,
        0.699999988079071,
        0.0,
        163.2613525390625,
        0.0,
        0.0,
        1.0
      ],
      "name": "Gold_Sword"
    },
    {
      "mesh": 3,
      "name": "Gold_Sword_Wood Sword_0"
    },
    {
      "children": [
        14
      ],
      "matrix": [
        0.699999988079071,
        0.0,
        0.0,
        0.0,
        0.0,
        0.699999988079071,
        0.0,
        0.0,
        0.0,
        0.0,
        0.699999988079071,
        0.0,
        -83.63066864013672,
        0.0,
        0.0,
        1.0
      ],
      "name": "Diamond_Sword"
    },
    {
      "mesh": 4,
      "name": "Diamond_Sword_Diamond Sword_0"
    }
  ],
  "samplers": [
    {
      "magFilter": 9728,
      "minFilter": 9728,
      "wrapS": 10497,
      "wrapT": 10497
    }
  ],
  "scene": 0,
  "scenes": [
    {
      "name": "Sketchfab_Scene",
      "nodes": [
        0
      ]
    }
  ],
  "textures": [
    {
      "sampler": 0,
      "source": 0
    },
    {
      "sampler": 0,
      "source": 1
    },
    {
      "sampler": 0,
      "source": 2
    },
    {
      "sampler": 0,
      "source": 3
    },
    {
      "sampler": 0,
      "source": 4
    }
  ]
}
