{
  "accessors": [
    {
      "bufferView": 2,
      "componentType": 5126,
      "count": 384,
      "max": [
        7.0,
        1.0,
        1.0
      ],
      "min": [
        -1.0,
        -1.0,
        -1.0
      ],
      "type": "VEC3"
    },
    {
      "bufferView": 2,
      "byteOffset": 4608,
      "componentType": 5126,
      "count": 384,
      "max": [
        1.0,
        1.0,
        1.0
      ],
      "min": [
        -1.0,
        -1.0,
        -1.0
      ],
      "type": "VEC3"
    },
    {
      "bufferView": 1,
      "componentType": 5126,
      "count": 384,
      "max": [
        1.9125242233276367,
        2.873227596282959
      ],
      "min": [
        -0.9125242233276367,
        -0.8464194536209106
      ],
      "type": "VEC2"
    },
    {
      "bufferView": 0,
      "componentType": 5125,
      "count": 528,
      "type": "SCALAR"
    },
    {
      "bufferView": 2,
      "byteOffset": 9216,
      "componentType": 5126,
      "count": 384,
      "max": [
        7.0,
        1.0,
        1.0
      ],
      "min": [
        -1.0,
        -1.0,
        -1.0
      ],
      "type": "VEC3"
    },
    {
      "bufferView": 2,
      "byteOffset": 13824,
      "componentType": 5126,
      "count": 384,
      "max": [
        1.0,
        1.0,
        1.0
      ],
      "min": [
        -1.0,
        -1.0,
        -1.0
      ],
      "type": "VEC3"
    },
    {
      "bufferView": 1,
      "byteOffset": 3072,
      "componentType": 5126,
      "count": 384,
      "max": [
        1.9125242233276367,
        2.873227596282959
      ],
      "min": [
        -0.9125242233276367,
        -0.8464194536209106
      ],
      "type": "VEC2"
    },
    {
      "bufferView": 0,
      "byteOffset": 2112,
      "componentType": 5125,
      "count": 528,
      "type": "SCALAR"
    },
    {
      "bufferView": 2,
      "byteOffset": 18432,
      "componentType": 5126,
      "count": 384,
      "max": [
        7.0,
        1.0,
        1.0
      ],
      "min": [
        -1.0,
        -1.0,
        -1.0
      ],
      "type": "VEC3"
    },
    {
      "bufferView": 2,
      "byteOffset": 23040,
      "componentType": 5126,
      "count": 384,
      "max": [
        1.0,
        1.0,
        1.0
      ],
      "min": [
        -1.0,
        -1.0,
        -1.0
      ],
      "type": "VEC3"
    },
    {
      "bufferView": 1,
      "byteOffset": 6144,
      "componentType": 5126,
      "count": 384,
      "max": [
        1.9125242233276367,
        2.873227596282959
      ],
      "min": [
        -0.9125242233276367,
        -0.8464194536209106
      ],
      "type": "VEC2"
    },
    {
      "bufferView": 0,
      "byteOffset": 4224,
      "componentType": 5125,
      "count": 528,
      "type": "SCALAR"
    },
    {
      "bufferView": 2,
      "byteOffset": 27648,
      "componentType": 5126,
      "count": 864,
      "max": [
        7.0,
        1.0,
        1.0
      ],
      "min": [
        -1.0,
        -1.0,
        -1.0
      ],
      "type": "VEC3"
    },
    {
      "bufferView": 2,
      "byteOffset": 38016,
      "componentType": 5126,
      "count": 864,
      "max": [
        1.0,
        1.0,
        1.0
      ],
      "min": [
        -1.0,
        -1.0,
        -1.0
      ],
      "type": "VEC3"
    },
    {
      "bufferView": 1,
      "byteOffset": 9216,
      "componentType": 5126,
      "count": 864,
      "max": [
        1.9125242233276367,
        2.873227596282959
      ],
      "min": [
        -0.9125242233276367,
        -0.8935036659240723
      ],
      "type": "VEC2"
    },
    {
      "bufferView": 0,
      "byteOffset": 6336,
      "componentType": 5125,
      "count": 1296,
      "type": "SCALAR"
    },
    {
      "bufferView": 2,
      "byteOffset": 48384,
      "componentType": 5126,
      "count": 4,
      "max": [
        1.0,
        0.0,
        1.0
      ],
      "min": [
        -1.0,
        0.0,
        -1.0
      ],
      "type": "VEC3"
    },
    {
      "bufferView": 2,
      "byteOffset": 48432,
      "componentType": 5126,
      "count": 4,
      "max": [
        0.0,
        1.0,
        -0.0
      ],
      "min": [
        0.0,
        1.0,
        -0.0
      ],
      "type": "VEC3"
    },
    {
      "bufferView": 1,
      "byteOffset": 16128,
      "componentType": 5126,
      "count": 4,
      "max": [
        1.0,
        1.0
      ],
      "min": [
        0.0,
        0.0
      ],
      "type": "VEC2"
    },
    {
      "bufferView": 0,
      "byteOffset": 11520,
      "componentType": 5125,
      "count": 6,
      "type": "SCALAR"
    }
  ],
  "asset": {
    "extras": {
      "author": "koolkid33 (https://sketchfab.com/ftena1)",
      "license": "CC-BY-4.0 (http://creativecommons.org/licenses/by/4.0/)",
      "source": "https://sketchfab.com/3d-models/minecraft-nether-portal-fcc8ee6666314e54a5a77e407217d9a0",
      "title": "minecraft nether portal"
    },
    "generator": "Sketchfab-13.98.0",
    "version": "2.0"
  },
  "bufferViews": [
    {
      "buffer": 0,
      "byteLength": 11544,
      "name": "floatBufferViews",
      "target": 34963
    },
    {
      "buffer": 0,
      "byteLength": 16160,
      "byteOffset": 11544,
      "byteStride": 8,
      "name": "floatBufferViews",
      "target": 34962
    },
    {
      "buffer": 0,
      "byteLength": 48480,
      "byteOffset": 27704,
      "byteStride": 12,
      "name": "floatBufferViews",
      "target": 34962
    }
  ],
  "buffers": [
    {
      "byteLength": 76184,
      "uri": "scene.bin"
    }
  ],
  "extensionsUsed": [
    "KHR_materials_clearcoat",
    "KHR_texture_transform",
    "KHR_materials_transmission"
  ],
  "images": [
    {
      "uri": "textures/Material.001_baseColor.jpeg"
    },
    {
      "uri": "textures/Material.001_metallicRoughness.png"
    },
    {
      "uri": "textures/Material.001_clearcoat.png"
    },
    {
      "uri": "textures/Material.001_clearcoat_roughness.png"
    },
    {
      "uri": "textures/Material.001_clearcoat_normal.png"
    },
    {
      "uri": "textures/Material_baseColor.png"
    },
    {
      "uri": "textures/Material_metallicRoughness.png"
    },
    {
      "uri": "textures/Material_emissive.jpeg"
    },
    {
      "uri": "textures/Material_transmission.png"
    }
  ],
  "materials": [
    {
      "doubleSided": true,
      "extensions": {
        "KHR_materials_clearcoat": {
          "clearcoatFactor": 0.638,
          "clearcoatNormalTexture": {
            "index": 4,
            "scale": 0.289
          },
          "clearcoatRoughnessFactor": 1.0,
          "clearcoatRoughnessTexture": {
            "index": 3
          },
          "clearcoatTexture": {
            "index": 2
          }
        }
      },
      "name": "Material.001",
      "occlusionTexture": {
        "index": 1,
        "strength": 0.393
      },
      "pbrMetallicRoughness": {
        "baseColorFactor": [
          0.543,
          0.543,
          0.543,
          1.0
        ],
        "baseColorTexture": {
          "index": 0
        },
        "metallicRoughnessTexture": {
          "index": 1
        },
        "roughnessFactor": 0.03400000000000003
      }
    },
    {
      "doubleSided": true,
      "extensions": {
        "KHR_materials_clearcoat": {
          "clearcoatFactor": 0.638,
          "clearcoatNormalTexture": {
            "index": 4,
            "scale": 0.289
          },
          "clearcoatRoughnessFactor": 1.0,
          "clearcoatRoughnessTexture": {
            "index": 3
          },
          "clearcoatTexture": {
            "index": 2
          }
        }
      },
      "name": "Material.002",
      "occlusionTexture": {
        "index": 1,
        "strength": 0.393
      },
      "pbrMetallicRoughness": {
        "baseColorFactor": [
          0.543,
          0.543,
          0.543,
          1.0
        ],
        "baseColorTexture": {
          "index": 0
        },
        "metallicRoughnessTexture": {
          "index": 1
        },
        "roughnessFactor": 0.03447174100470407
      }
    },
    {
      "doubleSided": true,
      "extensions": {
        "KHR_materials_clearcoat": {
          "clearcoatFactor": 0.638,
          "clearcoatNormalTexture": {
            "index": 4,
            "scale": 0.289
          },
          "clearcoatRoughnessFactor": 1.0,
          "clearcoatRoughnessTexture": {
            "index": 3
          },
          "clearcoatTexture": {
            "index": 2
          }
        }
      },
      "name": "Material.003",
      "occlusionTexture": {
        "index": 1,
        "strength": 0.393
      },
      "pbrMetallicRoughness": {
        "baseColorFactor": [
          0.543,
          0.543,
          0.543,
          1.0
        ],
        "baseColorTexture": {
          "index": 0
        },
        "metallicRoughnessTexture": {
          "index": 1
        },
        "roughnessFactor": 0.03400000000000003
      }
    },
    {
      "doubleSided": true,
      "extensions": {
        "KHR_materials_clearcoat": {
          "clearcoatFactor": 0.6376206265985879,
          "clearcoatNormalTexture": {
            "index": 4,
            "scale": 0.28939863647140296
          },
          "clearcoatRoughnessFactor": 1.0,
          "clearcoatRoughnessTexture": {
            "index": 3
          },
          "clearcoatTexture": {
            "index": 2
          }
        }
      },
      "name": "Material.004",
      "occlusionTexture": {
        "index": 1,
        "strength": 0.39274185266762884
      },
      "pbrMetallicRoughness": {
        "baseColorFactor": [
          0.543,
          0.543,
          0.543,
          1.0
        ],
        "baseColorTexture": {
          "index": 0
        },
        "metallicRoughnessTexture": {
          "index": 1
        },
        "roughnessFactor": 0.03400000000000003
      }
    },
    {
      "alphaMode": "BLEND",
      "doubleSided": true,
      "emissiveFactor": [
        1.0,
        1.0,
        1.0
      ],
      "emissiveTexture": {
        "extensions": {
          "KHR_texture_transform": {
            "offset": [
              0.8370154342920346,
              0.870178234808999
            ],
            "rotation": 2.8646447503935235,
            "scale": [
              1.0500000000000003,
              1.0500000000000003
            ]
          }
        },
        "index": 7
      },
      "extensions": {
        "KHR_materials_transmission": {
          "transmissionFactor": 1.0,
          "transmissionTexture": {
            "extensions": {
              "KHR_texture_transform": {
                "offset": [
                  -0.1129507816981713,
                  0.3392165304219279
                ],
                "rotation": -2.348588524288089,
                "scale": [
                  -6.980540421729031,
                  -0.9392782229568826
                ]
              }
            },
            "index": 9
          }
        }
      },
      "name": "Material",
      "occlusionTexture": {
        "extensions": {
          "KHR_texture_transform": {
            "offset": [
              0.38210203508545715,
              0.3657646156412815
            ],
            "rotation": -1.8358114808767825,
            "scale": [
              1.0473031365091865,
              -1.2684132795214182
            ]
          }
        },
        "index": 8
      },
      "pbrMetallicRoughness": {
        "baseColorFactor": [
          0.06662593864377286,
          0.012983032342173018,
          0.11953842798834559,
          1.0
        ],
        "baseColorTexture": {
          "extensions": {
            "KHR_texture_transform": {
              "offset": [
                0.3468689944740604,
                -0.1435033461841937
              ],
              "rotation": -0.2331158880277835,
              "scale": [
                5.573924583853646,
                0.9813258648019815
              ]
            }
          },
          "index": 5
        },
        "metallicRoughnessTexture": {
          "index": 6
        }
      }
    }
  ],
  "meshes": [
    {
      "name": "Object_0",
      "primitives": [
        {
          "attributes": {
            "NORMAL": 1,
            "POSITION": 0,
            "TEXCOORD_0": 2
          },
          "indices": 3,
          "material": 0,
          "mode": 4
        }
      ]
    },
    {
      "name": "Object_1",
      "primitives": [
        {
          "attributes": {
            "NORMAL": 5,
            "POSITION": 4,
            "TEXCOORD_0": 6
          },
          "indices": 7,
          "material": 1,
          "mode": 4
        }
      ]
    },
    {
      "name": "Object_2",
      "primitives": [
        {
          "attributes": {
            "NORMAL": 9,
            "POSITION": 8,
            "TEXCOORD_0": 10
          },
          "indices": 11,
          "material": 2,
          "mode": 4
        }
      ]
    },
    {
      "name": "Object_3",
      "primitives": [
        {
          "attributes": {
            "NORMAL": 13,
            "POSITION": 12,
            "TEXCOORD_0": 14
          },
          "indices": 15,
          "material": 3,
          "mode": 4
        }
      ]
    },
    {
      "name": "Object_4",
      "primitives": [
        {
          "attributes": {
            "NORMAL": 17,
            "POSITION": 16,
            "TEXCOORD_0": 18
          },
          "indices": 19,
          "material": 4,
          "mode": 4
        }
      ]
    }
  ],
  "nodes": [
    {
      "children": [
        1
      ],
      "matrix": [
        1.0,
        3.5707495248565405e-32,
        -1.6081226229577292e-16,
        0.0,
        -1.6081226229577292e-16,
        2.220446049250313e-16,
        -1.0,
        0.0,
        0.0,
        1.0,
        2.220446049250313e-16,
        0.0,
        0.0,
        0.0,
        0.0,
        1.0
      ],
      "name": "Sketchfab_model"
    },
    {
      "children": [
        2
      ],
      "name": "root"
    },
    {
      "children": [
        3
      ],
      "matrix": [
        1.0,
        0.0,
        0.0,
        0.0,
        0.0,
        2.220446049250313e-16,
        1.0,
        0.0,
        0.0,
        -1.0,
        2.220446049250313e-16,
        0.0,
        0.0,
        0.0,
        0.0,
        1.0
      ],
      "name": "GLTF_SceneRootNode"
    },
    {
      "children": [
        4
      ],
      "matrix": [
        -1.0,
        -3.5707495248565405e-32,
        1.6081226229577292e-16,
        0.0,
        1.6081226229577292e-16,
        -2.220446049250313e-16,
        1.0,
        0.0,
        0.0,
        1.0,
        2.220446049250313e-16,
        0.0,
        5.999970436096191,
        2.0381730293306602e-21,
        -9.179115295410156e-06,
        1.0
      ],
      "name": "Sketchfab_model_0"
    },
    {
      "children": [
        5
      ],
      "name": "root_1"
    },
    {
      "children": [
        6,
        9,
        12,
        15,
        18
      ],
      "matrix": [
        1.0,
        0.0,
        0.0,
        0.0,
        0.0,
        2.220446049250313e-16,
        1.0,
        0.0,
        0.0,
        -1.0,
        2.220446049250313e-16,
        0.0,
        0.0,
        0.0,
        0.0,
        1.0
      ],
      "name": "GLTF_SceneRootNode_2"
    },
    {
      "children": [
        7
      ],
      "matrix": [
        1.0,
        0.0,
        0.0,
        0.0,
        0.0,
        1.0,
        0.0,
        0.0,
        0.0,
        0.0,
        1.0,
        0.0,
        0.0,
        1.0643596649169922,
        0.0,
        1.0
      ],
      "name": "Cube_0_3"
    },
    {
      "children": [
        8
      ],
      "name": "Object_4_4"
    },
    {
      "mesh": 0,
      "name": "Object_8"
    },
    {
      "children": [
        10
      ],
      "matrix": [
        8.429369557916289e-08,
        1.0,
        0.0,
        0.0,
        -1.0,
        8.429369557916289e-08,
        0.0,
        0.0,
        0.0,
        0.0,
        1.0,
        0.0,
        0.0,
        3.064359664916992,
        0.0,
        1.0
      ],
      "name": "Cube.001_1_5"
    },
    {
      "children": [
        11
      ],
      "name": "Object_6_6"
    },
    {
      "mesh": 1,
      "name": "Object_11"
    },
    {
      "children": [
        13
      ],
      "matrix": [
        8.429369557916289e-08,
        1.0,
        0.0,
        0.0,
        -1.0,
        8.429369557916289e-08,
        0.0,
        0.0,
        0.0,
        0.0,
        1.0,
        0.0,
        6.0,
        3.064359664916992,
        0.0,
        1.0
      ],
      "name": "Cube.002_2_7"
    },
    {
      "children": [
        14
      ],
      "name": "Object_8_8"
    },
    {
      "mesh": 2,
      "name": "Object_14"
    },
    {
      "children": [
        16
      ],
      "matrix": [
        1.0,
        0.0,
        0.0,
        0.0,
        0.0,
        1.0,
        0.0,
        0.0,
        0.0,
        0.0,
        1.0,
        0.0,
        0.0,
        11.064359664916992,
        0.0,
        1.0
      ],
      "name": "Cube.003_3_9"
    },
    {
      "children": [
        17
      ],
      "name": "Object_10_10"
    },
    {
      "mesh": 3,
      "name": "Object_17"
    },
    {
      "children": [
        19
      ],
      "matrix": [
        2.0,
        0.0,
        0.0,
        0.0,
        0.0,
        0.0,
        1.0,
        0.0,
        0.0,
        -4.0,
        0.0,
        0.0,
        3.0,
        6.064359664916992,
        0.0,
        1.0
      ],
      "name": "Plane_4_11"
    },
    {
      "children": [
        20
      ],
      "name": "Object_12_12"
    },
    {
      "mesh": 4,
      "name": "Object_20"
    }
  ],
  "samplers": [
    {
      "magFilter": 9729,
      "minFilter": 9987,
      "wrapS": 10497,
      "wrapT": 10497
    },
    {
      "magFilter": 9729,
      "minFilter": 9987,
      "wrapS": 33648,
      "wrapT": 33648
    }
  ],
  "scene": 0,
  "scenes": [
    {
      "name": "Sketchfab_Scene",
      "nodes": [
        0
      ]
    }
  ],
  "textures": [
    {
      "sampler": 0,
      "source": 0
    },
    {
      "sampler": 0,
      "source": 1
    },
    {
      "sampler": 0,
      "source": 2
    },
    {
      "sampler": 0,
      "source": 3
    },
    {
      "sampler": 0,
      "source": 4
    },
    {
      "sampler": 1,
      "source": 5
    },
    {
      "sampler": 0,
      "source": 6
    },
    {
      "sampler": 1,
      "source": 7
    },
    {
      "sampler": 1,
      "source": 6
    },
    {
      "sampler": 1,
      "source": 8
    }
  ]
}
